<svg width="204" height="37" viewBox="0 0 204 37" fill="none" xmlns="http://www.w3.org/2000/svg">
<path d="M12.475 22.2811C12.475 21.5788 13.0444 21.0094 13.7467 21.0094H30.3184C30.0818 25.1893 28.5768 28.6266 25.8033 31.3211C23.0299 34.0026 19.6255 35.3433 15.5902 35.3433C11.4497 35.3433 7.97964 33.8974 5.17989 31.0057C2.3933 28.1139 1 24.5255 1 20.2405C1 18.2294 1.38119 16.3235 2.14356 14.5227C2.90593 12.7219 4.02319 11.0986 5.49536 9.65273C6.91495 8.24629 8.48569 7.20131 10.2076 6.51781C11.9295 5.83431 13.842 5.49255 15.9451 5.49255C18.7317 5.49255 21.2291 6.16949 23.4374 7.52335C24.9341 8.42674 26.231 9.5927 27.328 11.0212C28.0686 11.9857 27.3078 13.2806 26.0918 13.2806C25.5984 13.2806 25.1357 13.0512 24.8152 12.6761C23.604 11.2587 22.3167 10.1917 20.9531 9.47528C19.4152 8.64719 17.6933 8.23314 15.7874 8.23314C12.4881 8.23314 9.69497 9.41614 7.40786 11.7821C5.13389 14.1349 3.99691 16.9676 3.99691 20.2799C3.99691 23.8026 5.13389 26.7403 7.40786 29.0932C9.68183 31.446 12.4881 32.6224 15.8268 32.6224C18.4557 32.6224 20.8085 31.7812 22.8853 30.0987C24.9752 28.4162 26.3357 26.2343 26.9666 23.5529H13.7467C13.0444 23.5529 12.475 22.9835 12.475 22.2811Z" fill="#105A31"/>
<path d="M36.5883 33.3618C36.5883 34.1404 35.9571 34.7715 35.1785 34.7715C34.4 34.7715 33.7688 34.1404 33.7688 33.3618V14.3945C33.7688 13.6704 34.3558 13.0834 35.0799 13.0834H35.7844C36.1195 13.0834 36.3911 13.355 36.3911 13.6901C36.3911 14.2807 37.203 14.5602 37.6468 14.1706C37.9606 13.895 38.2847 13.6641 38.6191 13.4777C39.0124 13.262 39.4363 13.0953 39.8908 12.9776C40.7337 12.7594 41.4629 13.4821 41.4686 14.3527C41.4739 15.1621 40.8506 15.8176 40.0665 16.0184C39.0356 16.2825 38.2508 16.7303 37.7121 17.3619C36.9629 18.2426 36.5883 19.6819 36.5883 21.6798V33.3618Z" fill="#105A31"/>
<path d="M62.2197 23.7895C62.2197 21.4892 61.3982 19.4847 59.7551 17.7759C58.1121 16.054 56.2193 15.1931 54.0768 15.1931C51.7502 15.1931 49.7654 16.054 48.1224 17.7759C46.4925 19.4847 45.6776 21.6075 45.6776 24.1443C45.6776 26.5629 46.4925 28.6068 48.1224 30.2762C49.7523 31.9323 51.7108 32.7604 53.9979 32.7604C56.2062 32.7604 58.1252 31.8863 59.7551 30.1382C61.3982 28.3768 62.2197 26.2606 62.2197 23.7895ZM62.2197 33.9532C62.2197 33.1515 61.0584 32.7341 60.4231 33.2228C59.9018 33.6238 59.3242 33.9757 58.6904 34.2786C57.2183 34.9884 55.6278 35.3433 53.919 35.3433C50.7381 35.3433 48.0895 34.2589 45.9733 32.0901C43.8571 29.9081 42.799 27.2201 42.799 24.0261C42.799 20.7794 43.8768 18.0651 46.0325 15.8831C48.2013 13.7012 50.909 12.6102 54.1556 12.6102C55.825 12.6102 57.3563 12.952 58.7496 13.6355C59.3474 13.9231 59.9016 14.2663 60.4123 14.6652C61.0604 15.1715 62.2197 14.7533 62.2197 13.9309C62.2197 13.4628 62.5991 13.0834 63.0672 13.0834H63.5801C64.3315 13.0834 64.9406 13.6925 64.9406 14.4438V33.4111C64.9406 34.1624 64.3315 34.7715 63.5801 34.7715H63.0381C62.5861 34.7715 62.2197 34.4051 62.2197 33.9532Z" fill="#105A31"/>
<path d="M83.2769 13.6946C85.0533 14.5914 87.7341 14.6248 89.5006 13.7088C89.5486 13.6839 89.5968 13.6595 89.6453 13.6355C90.9598 12.9782 92.4253 12.6496 94.0421 12.6496C96.9864 12.6496 99.1289 13.5369 100.47 15.3114C101.81 17.0727 102.481 19.9119 102.481 23.8289V33.4407C102.481 34.1757 101.885 34.7715 101.15 34.7715C100.415 34.7715 99.819 34.1757 99.819 33.4407V23.2571C99.819 20.3916 99.3458 18.3543 98.3994 17.145C97.453 15.9226 95.9086 15.3114 93.7661 15.3114C92.5305 15.3114 91.4395 15.5677 90.4931 16.0803C89.5599 16.5798 88.8172 17.3027 88.2652 18.2491C87.9366 18.8406 87.7 19.5176 87.5554 20.2799C87.4108 21.0291 87.3385 22.3436 87.3385 24.2232V33.4604C87.3385 34.1845 86.7515 34.7715 86.0273 34.7715C85.3032 34.7715 84.7162 34.1845 84.7162 33.4604V22.6262C84.7162 20.1288 84.2101 18.2886 83.198 17.1056C82.1859 15.9094 80.6349 15.3114 78.5449 15.3114C77.2831 15.3114 76.1724 15.5677 75.2129 16.0803C74.2665 16.5798 73.5172 17.3027 72.9652 18.2491C72.6234 18.8406 72.3802 19.5176 72.2357 20.2799C72.1042 21.0291 72.0385 22.3436 72.0385 24.2232V33.4012C72.0385 34.158 71.425 34.7715 70.6682 34.7715C69.9114 34.7715 69.2979 34.158 69.2979 33.4012V14.4537C69.2979 13.6969 69.9114 13.0834 70.6682 13.0834H71.3705C71.7394 13.0834 72.0385 13.3825 72.0385 13.7514C72.0385 14.3705 72.8503 14.6921 73.3446 14.3194C73.8436 13.9431 74.3809 13.6297 74.9565 13.3791C76.087 12.8928 77.362 12.6496 78.7815 12.6496C80.4246 12.6496 81.923 12.998 83.2769 13.6946Z" fill="#105A31"/>
<path d="M120.896 13.6946C122.672 14.5914 125.353 14.6248 127.12 13.7088C127.168 13.6839 127.216 13.6595 127.264 13.6355C128.579 12.9782 130.044 12.6496 131.661 12.6496C134.605 12.6496 136.748 13.5369 138.089 15.3114C139.429 17.0727 140.1 19.9119 140.1 23.8289V33.4407C140.1 34.1757 139.504 34.7715 138.769 34.7715C138.034 34.7715 137.438 34.1757 137.438 33.4407V23.2571C137.438 20.3916 136.965 18.3543 136.018 17.145C135.072 15.9226 133.528 15.3114 131.385 15.3114C130.15 15.3114 129.059 15.5677 128.112 16.0803C127.179 16.5798 126.436 17.3027 125.884 18.2491C125.556 18.8406 125.319 19.5176 125.174 20.2799C125.03 21.0291 124.958 22.3436 124.958 24.2232V33.4604C124.958 34.1845 124.371 34.7715 123.646 34.7715C122.922 34.7715 122.335 34.1845 122.335 33.4604V22.6262C122.335 20.1288 121.829 18.2886 120.817 17.1056C119.805 15.9094 118.254 15.3114 116.164 15.3114C114.902 15.3114 113.791 15.5677 112.832 16.0803C111.886 16.5798 111.136 17.3027 110.584 18.2491C110.242 18.8406 109.999 19.5176 109.855 20.2799C109.723 21.0291 109.658 22.3436 109.658 24.2232V33.4012C109.658 34.158 109.044 34.7715 108.287 34.7715C107.53 34.7715 106.917 34.158 106.917 33.4012V14.4537C106.917 13.6969 107.53 13.0834 108.287 13.0834H108.99C109.358 13.0834 109.658 13.3825 109.658 13.7514C109.658 14.3705 110.469 14.6921 110.964 14.3194C111.463 13.9431 112 13.6297 112.576 13.3791C113.706 12.8928 114.981 12.6496 116.401 12.6496C118.044 12.6496 119.542 12.998 120.896 13.6946Z" fill="#105A31"/>
<path d="M162.892 23.7895C162.892 21.4892 162.071 19.4847 160.428 17.7759C158.784 16.054 156.892 15.1931 154.749 15.1931C152.423 15.1931 150.438 16.054 148.795 17.7759C147.165 19.4847 146.35 21.6075 146.35 24.1443C146.35 26.5629 147.165 28.6068 148.795 30.2762C150.425 31.9323 152.383 32.7604 154.67 32.7604C156.879 32.7604 158.798 31.8863 160.428 30.1382C162.071 28.3768 162.892 26.2606 162.892 23.7895ZM162.892 33.9532C162.892 33.1515 161.731 32.7341 161.095 33.2228C160.574 33.6238 159.997 33.9757 159.363 34.2786C157.891 34.9884 156.3 35.3433 154.591 35.3433C151.41 35.3433 148.762 34.2589 146.646 32.0901C144.529 29.9081 143.471 27.2201 143.471 24.0261C143.471 20.7794 144.549 18.0651 146.705 15.8831C148.874 13.7012 151.581 12.6102 154.828 12.6102C156.497 12.6102 158.029 12.952 159.422 13.6355C160.02 13.9231 160.574 14.2663 161.085 14.6652C161.733 15.1715 162.892 14.7533 162.892 13.9309C162.892 13.4628 163.271 13.0834 163.74 13.0834H164.253C165.004 13.0834 165.613 13.6925 165.613 14.4438V33.4111C165.613 34.1624 165.004 34.7715 164.253 34.7715H163.71C163.258 34.7715 162.892 34.4051 162.892 33.9532Z" fill="#105A31"/>
<path d="M12.475 22.2811C12.475 21.5788 13.0444 21.0094 13.7467 21.0094H30.3184C30.0818 25.1893 28.5768 28.6266 25.8033 31.3211C23.0299 34.0026 19.6255 35.3433 15.5902 35.3433C11.4497 35.3433 7.97964 33.8974 5.17989 31.0057C2.3933 28.1139 1 24.5255 1 20.2405C1 18.2294 1.38119 16.3235 2.14356 14.5227C2.90593 12.7219 4.02319 11.0986 5.49536 9.65273C6.91495 8.24629 8.48569 7.20131 10.2076 6.51781C11.9295 5.83431 13.842 5.49255 15.9451 5.49255C18.7317 5.49255 21.2291 6.16949 23.4374 7.52335C24.9341 8.42674 26.231 9.5927 27.328 11.0212C28.0686 11.9857 27.3078 13.2806 26.0918 13.2806C25.5984 13.2806 25.1357 13.0512 24.8152 12.6761C23.604 11.2587 22.3167 10.1917 20.9531 9.47528C19.4152 8.64719 17.6933 8.23314 15.7874 8.23314C12.4881 8.23314 9.69497 9.41614 7.40786 11.7821C5.13389 14.1349 3.99691 16.9676 3.99691 20.2799C3.99691 23.8026 5.13389 26.7403 7.40786 29.0932C9.68183 31.446 12.4881 32.6224 15.8268 32.6224C18.4557 32.6224 20.8085 31.7812 22.8853 30.0987C24.9752 28.4162 26.3357 26.2343 26.9666 23.5529H13.7467C13.0444 23.5529 12.475 22.9835 12.475 22.2811Z" stroke="#105A31" stroke-width="1.49254"/>
<path d="M36.5883 33.3618C36.5883 34.1404 35.9571 34.7715 35.1785 34.7715C34.4 34.7715 33.7688 34.1404 33.7688 33.3618V14.3945C33.7688 13.6704 34.3558 13.0834 35.0799 13.0834H35.7844C36.1195 13.0834 36.3911 13.355 36.3911 13.6901C36.3911 14.2807 37.203 14.5602 37.6468 14.1706C37.9606 13.895 38.2847 13.6641 38.6191 13.4777C39.0124 13.262 39.4363 13.0953 39.8908 12.9776C40.7337 12.7594 41.4629 13.4821 41.4686 14.3527C41.4739 15.1621 40.8506 15.8176 40.0665 16.0184C39.0356 16.2825 38.2508 16.7303 37.7121 17.3619C36.9629 18.2426 36.5883 19.6819 36.5883 21.6798V33.3618Z" stroke="#105A31" stroke-width="1.49254"/>
<path d="M62.2197 23.7895C62.2197 21.4892 61.3982 19.4847 59.7551 17.7759C58.1121 16.054 56.2193 15.1931 54.0768 15.1931C51.7502 15.1931 49.7654 16.054 48.1224 17.7759C46.4925 19.4847 45.6776 21.6075 45.6776 24.1443C45.6776 26.5629 46.4925 28.6068 48.1224 30.2762C49.7523 31.9323 51.7108 32.7604 53.9979 32.7604C56.2062 32.7604 58.1252 31.8863 59.7551 30.1382C61.3982 28.3768 62.2197 26.2606 62.2197 23.7895ZM62.2197 33.9532C62.2197 33.1515 61.0584 32.7341 60.4231 33.2228C59.9018 33.6238 59.3242 33.9757 58.6904 34.2786C57.2183 34.9884 55.6278 35.3433 53.919 35.3433C50.7381 35.3433 48.0895 34.2589 45.9733 32.0901C43.8571 29.9081 42.799 27.2201 42.799 24.0261C42.799 20.7794 43.8768 18.0651 46.0325 15.8831C48.2013 13.7012 50.909 12.6102 54.1556 12.6102C55.825 12.6102 57.3563 12.952 58.7496 13.6355C59.3474 13.9231 59.9016 14.2663 60.4123 14.6652C61.0604 15.1715 62.2197 14.7533 62.2197 13.9309C62.2197 13.4628 62.5991 13.0834 63.0672 13.0834H63.5801C64.3315 13.0834 64.9406 13.6925 64.9406 14.4438V33.4111C64.9406 34.1624 64.3315 34.7715 63.5801 34.7715H63.0381C62.5861 34.7715 62.2197 34.4051 62.2197 33.9532Z" stroke="#105A31" stroke-width="1.49254"/>
<path d="M83.2769 13.6946C85.0533 14.5914 87.7341 14.6248 89.5006 13.7088C89.5486 13.6839 89.5968 13.6595 89.6453 13.6355C90.9598 12.9782 92.4253 12.6496 94.0421 12.6496C96.9864 12.6496 99.1289 13.5369 100.47 15.3114C101.81 17.0727 102.481 19.9119 102.481 23.8289V33.4407C102.481 34.1757 101.885 34.7715 101.15 34.7715C100.415 34.7715 99.819 34.1757 99.819 33.4407V23.2571C99.819 20.3916 99.3458 18.3543 98.3994 17.145C97.453 15.9226 95.9086 15.3114 93.7661 15.3114C92.5305 15.3114 91.4395 15.5677 90.4931 16.0803C89.5599 16.5798 88.8172 17.3027 88.2652 18.2491C87.9366 18.8406 87.7 19.5176 87.5554 20.2799C87.4108 21.0291 87.3385 22.3436 87.3385 24.2232V33.4604C87.3385 34.1845 86.7515 34.7715 86.0273 34.7715C85.3032 34.7715 84.7162 34.1845 84.7162 33.4604V22.6262C84.7162 20.1288 84.2101 18.2886 83.198 17.1056C82.1859 15.9094 80.6349 15.3114 78.5449 15.3114C77.2831 15.3114 76.1724 15.5677 75.2129 16.0803C74.2665 16.5798 73.5172 17.3027 72.9652 18.2491C72.6234 18.8406 72.3802 19.5176 72.2357 20.2799C72.1042 21.0291 72.0385 22.3436 72.0385 24.2232V33.4012C72.0385 34.158 71.425 34.7715 70.6682 34.7715C69.9114 34.7715 69.2979 34.158 69.2979 33.4012V14.4537C69.2979 13.6969 69.9114 13.0834 70.6682 13.0834H71.3705C71.7394 13.0834 72.0385 13.3825 72.0385 13.7514C72.0385 14.3705 72.8503 14.6921 73.3446 14.3194C73.8436 13.9431 74.3809 13.6297 74.9565 13.3791C76.087 12.8928 77.362 12.6496 78.7815 12.6496C80.4246 12.6496 81.923 12.998 83.2769 13.6946Z" stroke="#105A31" stroke-width="1.49254"/>
<path d="M120.896 13.6946C122.672 14.5914 125.353 14.6248 127.12 13.7088C127.168 13.6839 127.216 13.6595 127.264 13.6355C128.579 12.9782 130.044 12.6496 131.661 12.6496C134.605 12.6496 136.748 13.5369 138.089 15.3114C139.429 17.0727 140.1 19.9119 140.1 23.8289V33.4407C140.1 34.1757 139.504 34.7715 138.769 34.7715C138.034 34.7715 137.438 34.1757 137.438 33.4407V23.2571C137.438 20.3916 136.965 18.3543 136.018 17.145C135.072 15.9226 133.528 15.3114 131.385 15.3114C130.15 15.3114 129.059 15.5677 128.112 16.0803C127.179 16.5798 126.436 17.3027 125.884 18.2491C125.556 18.8406 125.319 19.5176 125.174 20.2799C125.03 21.0291 124.958 22.3436 124.958 24.2232V33.4604C124.958 34.1845 124.371 34.7715 123.646 34.7715C122.922 34.7715 122.335 34.1845 122.335 33.4604V22.6262C122.335 20.1288 121.829 18.2886 120.817 17.1056C119.805 15.9094 118.254 15.3114 116.164 15.3114C114.902 15.3114 113.791 15.5677 112.832 16.0803C111.886 16.5798 111.136 17.3027 110.584 18.2491C110.242 18.8406 109.999 19.5176 109.855 20.2799C109.723 21.0291 109.658 22.3436 109.658 24.2232V33.4012C109.658 34.158 109.044 34.7715 108.287 34.7715C107.53 34.7715 106.917 34.158 106.917 33.4012V14.4537C106.917 13.6969 107.53 13.0834 108.287 13.0834H108.99C109.358 13.0834 109.658 13.3825 109.658 13.7514C109.658 14.3705 110.469 14.6921 110.964 14.3194C111.463 13.9431 112 13.6297 112.576 13.3791C113.706 12.8928 114.981 12.6496 116.401 12.6496C118.044 12.6496 119.542 12.998 120.896 13.6946Z" stroke="#105A31" stroke-width="1.49254"/>
<path d="M162.892 23.7895C162.892 21.4892 162.071 19.4847 160.428 17.7759C158.784 16.054 156.892 15.1931 154.749 15.1931C152.423 15.1931 150.438 16.054 148.795 17.7759C147.165 19.4847 146.35 21.6075 146.35 24.1443C146.35 26.5629 147.165 28.6068 148.795 30.2762C150.425 31.9323 152.383 32.7604 154.67 32.7604C156.879 32.7604 158.798 31.8863 160.428 30.1382C162.071 28.3768 162.892 26.2606 162.892 23.7895ZM162.892 33.9532C162.892 33.1515 161.731 32.7341 161.095 33.2228C160.574 33.6238 159.997 33.9757 159.363 34.2786C157.891 34.9884 156.3 35.3433 154.591 35.3433C151.41 35.3433 148.762 34.2589 146.646 32.0901C144.529 29.9081 143.471 27.2201 143.471 24.0261C143.471 20.7794 144.549 18.0651 146.705 15.8831C148.874 13.7012 151.581 12.6102 154.828 12.6102C156.497 12.6102 158.029 12.952 159.422 13.6355C160.02 13.9231 160.574 14.2663 161.085 14.6652C161.733 15.1715 162.892 14.7533 162.892 13.9309C162.892 13.4628 163.271 13.0834 163.74 13.0834H164.253C165.004 13.0834 165.613 13.6925 165.613 14.4438V33.4111C165.613 34.1624 165.004 34.7715 164.253 34.7715H163.71C163.258 34.7715 162.892 34.4051 162.892 33.9532Z" stroke="#105A31" stroke-width="1.49254"/>
<path d="M174.134 11.4627V23.403M174.134 35.3433V23.403M174.134 23.403L201 4" stroke="#0702FC" stroke-width="7.46269"/>
</svg>
