<svg width="32" height="33" viewBox="0 0 32 33" fill="none" xmlns="http://www.w3.org/2000/svg">
<g clip-path="url(#clip0)">
<path d="M22.467 0.857178H9.53297C4.27647 0.857178 0 5.13365 0 10.3902V23.3242C0 28.5807 4.27647 32.8572 9.53297 32.8572H22.467C27.7235 32.8572 32 28.5807 32 23.3242V10.3902C31.9999 5.13365 27.7235 0.857178 22.467 0.857178ZM28.7808 23.3242C28.7808 26.8112 25.954 29.638 22.467 29.638H9.53297C6.046 29.638 3.2192 26.8112 3.2192 23.3242V10.3902C3.2192 6.90312 6.046 4.07638 9.53297 4.07638H22.467C25.954 4.07638 28.7808 6.90312 28.7808 10.3902V23.3242Z" fill="#FAFAF6"/>
<path d="M16 8.58081C11.4364 8.58081 7.72363 12.2936 7.72363 16.8571C7.72363 21.4206 11.4364 25.1334 16 25.1334C20.5636 25.1334 24.2763 21.4207 24.2763 16.8571C24.2763 12.2935 20.5636 8.58081 16 8.58081ZM16 21.9143C13.207 21.9143 10.9428 19.6502 10.9428 16.8572C10.9428 14.0641 13.207 11.8 16 11.8C18.793 11.8 21.0571 14.0641 21.0571 16.8572C21.0571 19.6501 18.7929 21.9143 16 21.9143Z" fill="#FAFAF6"/>
<path d="M24.2923 10.6262C25.3875 10.6262 26.2754 9.73825 26.2754 8.64297C26.2754 7.54769 25.3875 6.65979 24.2923 6.65979C23.197 6.65979 22.3091 7.54769 22.3091 8.64297C22.3091 9.73825 23.197 10.6262 24.2923 10.6262Z" fill="#FAFAF6"/>
</g>
<defs>
<clipPath id="clip0">
<rect width="32" height="32" fill="white" transform="translate(0 0.857178)"/>
</clipPath>
</defs>
</svg>
