<svg width="668" height="389" viewBox="0 0 668 389" fill="none" xmlns="http://www.w3.org/2000/svg">
<path d="M373.54 388.98C535.953 388.98 667.616 381.832 667.616 373.015C667.616 364.197 535.953 357.049 373.54 357.049C211.126 357.049 79.4634 364.197 79.4634 373.015C79.4634 381.832 211.126 388.98 373.54 388.98Z" fill="#3E3127"/>
<path d="M577.697 345.605H173.055C170.514 345.594 168.081 344.578 166.288 342.777C164.495 340.976 163.488 338.539 163.488 335.998V78.454C163.488 73.1457 167.787 62.7915 173.095 62.7915H577.697C582.986 62.7915 587.285 73.1457 587.285 78.454V335.998C587.285 338.542 586.275 340.983 584.478 342.784C582.681 344.585 580.242 345.6 577.697 345.605Z" fill="#637582"/>
<path d="M587.345 68.9676V78.3127C587.345 73.0044 589.101 68.7052 583.813 68.7052H168.998C163.71 68.6245 163.488 73.0044 163.488 78.3127V68.9676C163.488 66.4231 164.497 63.9824 166.295 62.1813C168.092 60.3801 170.531 59.3655 173.075 59.3602H577.697C578.963 59.3549 580.216 59.5995 581.387 60.0799C582.557 60.5603 583.621 61.2672 584.517 62.1598C585.413 63.0525 586.125 64.1134 586.61 65.2817C587.095 66.4499 587.345 67.7025 587.345 68.9676Z" fill="#9FB1BC"/>
<path d="M180.725 339.086V81.9861H570.007V338.844" fill="#CAEEFC"/>
<path d="M570.371 328.691H181.088V338.077H570.371V328.691Z" fill="#78ABBA"/>
<path d="M570.371 84.4482H181.088V93.8337H570.371V84.4482Z" fill="white"/>
<path d="M591.382 340.761H583.308V70.6428C583.308 69.1708 582.723 67.759 581.682 66.718C580.642 65.6771 579.23 65.0923 577.758 65.0923H173.055C171.588 65.1029 170.184 65.6918 169.149 66.731C168.113 67.7702 167.53 69.1759 167.524 70.6428V339.086H159.451V70.6428C159.456 67.0277 160.896 63.5624 163.454 61.008C166.013 58.4536 169.48 57.0189 173.095 57.0189H577.697C579.491 57.0136 581.267 57.3619 582.926 58.0439C584.585 58.726 586.093 59.7283 587.364 60.9937C588.635 62.2591 589.644 63.7626 590.333 65.4183C591.023 67.074 591.379 68.8494 591.382 70.6428V340.761Z" fill="#3E3127"/>
<path d="M630.558 340.761H120.194C111.923 340.761 105.218 347.466 105.218 355.738C105.218 364.009 111.923 370.714 120.194 370.714H630.558C638.829 370.714 645.535 364.009 645.535 355.738C645.535 347.466 638.829 340.761 630.558 340.761Z" fill="#637582"/>
<path d="M645.535 357.715C645.537 359.683 645.152 361.631 644.4 363.45C643.648 365.268 642.545 366.92 641.154 368.311C639.763 369.702 638.111 370.805 636.293 371.557C634.474 372.309 632.526 372.694 630.558 372.692H120.194C116.222 372.692 112.413 371.114 109.604 368.305C106.795 365.497 105.218 361.687 105.218 357.715C105.21 355.084 105.907 352.498 107.236 350.227C108.545 352.506 110.432 354.399 112.708 355.714C114.983 357.029 117.566 357.719 120.194 357.715H630.558C632.526 357.717 634.474 357.331 636.292 356.58C638.11 355.828 639.763 354.726 641.155 353.335C642.077 352.409 642.871 351.364 643.516 350.227C644.846 352.498 645.543 355.084 645.535 357.715Z" fill="#455760"/>
<path d="M630.558 376.062H120.193C115.151 376.062 110.315 374.059 106.749 370.494C103.183 366.928 101.18 362.092 101.18 357.049C101.18 352.007 103.183 347.171 106.749 343.605C110.315 340.04 115.151 338.036 120.193 338.036H630.558C635.6 338.036 640.436 340.04 644.002 343.605C647.568 347.171 649.571 352.007 649.571 357.049C649.571 362.092 647.568 366.928 644.002 370.494C640.436 374.059 635.6 376.062 630.558 376.062ZM120.193 346.11C117.292 346.11 114.509 347.262 112.458 349.314C110.406 351.366 109.254 354.148 109.254 357.049C109.254 359.951 110.406 362.733 112.458 364.785C114.509 366.836 117.292 367.989 120.193 367.989H630.558C633.459 367.989 636.241 366.836 638.293 364.785C640.345 362.733 641.497 359.951 641.497 357.049C641.497 354.148 640.345 351.366 638.293 349.314C636.241 347.262 633.459 346.11 630.558 346.11H120.193Z" fill="#3E3127"/>
<path d="M335.372 244.344C316.581 246.362 297.669 247.916 279.039 250.056L183.672 261.015V246.019L268.806 236.149C290.302 233.687 312.161 232.011 333.818 229.448C333.938 234.447 334.458 239.428 335.372 244.344Z" fill="#78ABBA"/>
<path d="M510.95 261.742C503.499 280.552 490.139 296.432 472.881 306.991C455.624 317.551 435.403 322.217 415.263 320.289C395.123 318.36 376.155 309.941 361.215 296.298C346.275 282.656 336.171 264.528 332.425 244.646C331.515 239.757 330.996 234.803 330.871 229.832C330.871 229.004 330.871 228.177 330.871 227.349C330.871 224.765 330.972 222.182 331.174 219.659C331.174 219.659 331.174 219.477 331.174 219.397C332.191 231.815 335.714 243.9 341.528 254.92C349.164 269.378 360.455 281.583 374.277 290.317C388.098 299.052 403.968 304.011 420.304 304.701C436.64 305.392 452.871 301.788 467.38 294.251C481.89 286.713 494.17 275.505 502.998 261.742L518.176 240.024L510.95 261.742Z" fill="#78ABBA"/>
<path d="M183.752 340.479H177.697V80.3313H573.055V340.216H567V86.3864H183.752V340.479Z" fill="#3E3127"/>
<path d="M145.323 84.1055C138.683 80.2771 133.391 74.4884 130.172 67.5333C126.952 60.5783 125.963 52.7976 127.341 45.2584C128.718 37.7192 132.394 30.7908 137.865 25.4234C143.336 20.056 150.333 16.5126 157.897 15.2791C158.664 15.158 159.411 15.0571 160.178 14.9966C164.904 14.5378 169.674 15.0828 174.175 16.5959C178.676 18.1089 182.806 20.5559 186.295 23.7764C190.026 27.1487 193.008 31.2657 195.048 35.8617C197.089 40.4577 198.143 45.4306 198.143 50.4593V51.9932H194.107V50.4593C194.118 45.9999 193.196 41.5875 191.399 37.5063C189.601 33.4251 186.969 29.7657 183.672 26.7636C180.594 23.9239 176.953 21.7656 172.984 20.43C169.016 19.0945 164.81 18.6116 160.642 19.0131C159.976 19.0131 159.29 19.1544 158.624 19.2755C151.878 20.365 145.636 23.5152 140.752 28.2937C135.868 33.0723 132.583 39.245 131.347 45.9649C130.111 52.6848 130.985 59.6226 133.848 65.8262C136.712 72.0298 141.425 77.1952 147.341 80.6137L145.323 84.1055Z" fill="#3E3127"/>
<path d="M209.91 27.4094C207.2 27.4094 204.55 26.6057 202.296 25.0998C200.042 23.5939 198.286 21.4535 197.249 18.9493C196.211 16.4451 195.94 13.6895 196.469 11.0311C196.997 8.37261 198.303 5.93066 200.219 4.01403C202.136 2.09739 204.578 0.792138 207.236 0.263338C209.895 -0.265461 212.65 0.00593797 215.155 1.04322C217.659 2.08049 219.799 3.83706 221.305 6.09079C222.811 8.34452 223.615 10.9942 223.615 13.7047C223.609 17.3378 222.164 20.8205 219.595 23.3895C217.026 25.9585 213.543 27.4041 209.91 27.4094ZM209.91 4.03674C207.998 4.03674 206.129 4.60376 204.539 5.66609C202.949 6.72842 201.71 8.23835 200.978 10.0049C200.246 11.7715 200.055 13.7154 200.428 15.5909C200.801 17.4663 201.722 19.1889 203.074 20.541C204.426 21.8931 206.149 22.8139 208.024 23.1869C209.899 23.56 211.843 23.3685 213.61 22.6368C215.376 21.905 216.886 20.6659 217.949 19.076C219.011 17.4861 219.578 15.6169 219.578 13.7047C219.573 11.1423 218.552 8.68626 216.74 6.87432C214.929 5.06238 212.473 4.04207 209.91 4.03674Z" fill="#3E3127"/>
<path d="M577.051 43.0518C576.516 43.0518 576.003 42.8392 575.624 42.4606C575.246 42.0821 575.033 41.5687 575.033 41.0334V11.202C575.033 10.6667 575.246 10.1533 575.624 9.77476C576.003 9.39624 576.516 9.18359 577.051 9.18359C577.587 9.18359 578.1 9.39624 578.479 9.77476C578.857 10.1533 579.07 10.6667 579.07 11.202V41.0334C579.07 41.5687 578.857 42.0821 578.479 42.4606C578.1 42.8392 577.587 43.0518 577.051 43.0518Z" fill="#3E3127"/>
<path d="M638.349 87.1732H609.264C608.729 87.1732 608.215 86.9606 607.837 86.582C607.458 86.2035 607.246 85.6901 607.246 85.1548C607.246 84.6195 607.458 84.1062 607.837 83.7276C608.215 83.3491 608.729 83.1365 609.264 83.1365H638.349C638.884 83.1365 639.397 83.3491 639.776 83.7276C640.154 84.1062 640.367 84.6195 640.367 85.1548C640.367 85.6901 640.154 86.2035 639.776 86.582C639.397 86.9606 638.884 87.1732 638.349 87.1732Z" fill="#3E3127"/>
<path d="M628.237 30.9822C627.957 30.9841 627.68 30.9276 627.422 30.8164C627.165 30.7052 626.934 30.5417 626.744 30.3363C626.562 30.1408 626.421 29.9112 626.329 29.6609C626.237 29.4106 626.195 29.1445 626.206 28.878C626.218 28.6115 626.282 28.3499 626.395 28.1082C626.508 27.8666 626.667 27.6497 626.865 27.4702L638.087 17.0958C638.276 16.8938 638.505 16.7328 638.758 16.6228C639.012 16.5128 639.286 16.4562 639.563 16.4565C639.84 16.4569 640.113 16.5141 640.367 16.6246C640.621 16.7352 640.849 16.8967 641.038 17.0992C641.226 17.3017 641.371 17.5408 641.463 17.8016C641.556 18.0625 641.593 18.3395 641.574 18.6156C641.555 18.8916 641.479 19.1607 641.351 19.4062C641.224 19.6517 641.047 19.8684 640.832 20.0426L629.61 30.4372C629.238 30.7857 628.747 30.9804 628.237 30.9822Z" fill="#3E3127"/>
<path d="M601.938 55.3236C601.661 55.3228 601.387 55.265 601.134 55.1539C600.88 55.0427 600.653 54.8807 600.464 54.6778C600.282 54.4836 600.139 54.2551 600.045 54.0055C599.951 53.7559 599.908 53.4902 599.917 53.2237C599.927 52.9572 599.989 52.6952 600.1 52.4528C600.211 52.2105 600.369 51.9926 600.565 51.8117L616.409 37.1382C616.605 36.9567 616.835 36.8158 617.085 36.7236C617.335 36.6313 617.601 36.5897 617.868 36.6009C618.134 36.6122 618.396 36.6762 618.638 36.7892C618.879 36.9022 619.096 37.0619 619.276 37.2593C619.636 37.6532 619.825 38.1738 619.803 38.7072C619.78 39.2406 619.547 39.7432 619.154 40.1052L603.31 54.7787C602.938 55.1272 602.448 55.3219 601.938 55.3236Z" fill="#3E3127"/>
<path d="M591.906 45.6555C591.537 45.6591 591.174 45.5614 590.857 45.373C590.629 45.2344 590.432 45.0523 590.275 44.8371C590.118 44.6219 590.006 44.3778 589.944 44.1189C589.882 43.86 589.872 43.5914 589.914 43.3286C589.957 43.0658 590.051 42.814 590.191 42.5876L597.053 31.3251C597.192 31.0978 597.374 30.9002 597.589 30.7436C597.804 30.5869 598.048 30.4744 598.307 30.4125C598.566 30.3506 598.835 30.3405 599.097 30.3828C599.36 30.4252 599.612 30.519 599.838 30.6591C600.292 30.9387 600.616 31.3864 600.741 31.9044C600.866 32.4224 600.781 32.9687 600.504 33.4242L593.622 44.7069C593.44 44.9978 593.187 45.2375 592.887 45.4035C592.587 45.5695 592.249 45.6562 591.906 45.6555Z" fill="#3E3127"/>
<path d="M617.781 70.8246H609.264C608.729 70.8246 608.215 70.6119 607.837 70.2334C607.458 69.8549 607.246 69.3415 607.246 68.8062C607.246 68.2709 607.458 67.7575 607.837 67.379C608.215 67.0005 608.729 66.7878 609.264 66.7878H617.781C618.317 66.7878 618.83 67.0005 619.209 67.379C619.587 67.7575 619.8 68.2709 619.8 68.8062C619.8 69.3415 619.587 69.8549 619.209 70.2334C618.83 70.6119 618.317 70.8246 617.781 70.8246Z" fill="#3E3127"/>
<path d="M330.831 227.47C307.74 230.316 284.408 232.052 261.358 234.696L103.038 252.861C81.9053 255.283 60.1271 261.197 38.8535 256.635C17.5799 252.074 4.03662 232.112 4.03662 210.859V212.494C4.03662 191.2 17.6808 171.258 38.8535 166.717C60.0261 162.176 81.9053 168.069 103.038 170.492L261.358 188.657C284.327 191.301 307.781 193.017 330.851 195.883" fill="#ECEBEB"/>
<path d="M326.854 201.171V208.881C303.744 206.035 280.331 204.299 257.362 201.655L99.0413 183.49C77.909 181.068 56.1308 175.154 34.8572 179.635C15.2387 183.914 2.01837 201.332 0.282571 220.809C0.117395 219.531 0.0230605 218.244 0 216.954C0.322939 195.963 13.8864 176.466 34.7967 171.985C56.0702 167.424 77.8484 173.337 98.9807 175.759L257.302 193.925C280.331 196.589 303.744 198.305 326.854 201.171Z" fill="white"/>
<path d="M335.372 218.246V228.338C312.262 231.204 288.949 232.94 265.879 235.564L107.579 253.729C86.4465 256.333 64.5876 262.146 43.3745 257.584C22.5046 253.103 8.921 233.606 8.57788 212.635C8.62032 209.273 9.01265 205.925 9.74853 202.644C13.4825 219.558 25.8955 233.889 43.3745 237.623C64.6683 242.184 86.4465 246.08 107.579 243.678L265.879 225.512C288.848 222.848 312.262 221.112 335.372 218.246Z" fill="#C4C4C4"/>
<path d="M510.95 241.619C503.095 261.648 488.572 278.355 469.831 288.92C451.089 299.485 429.276 303.262 408.074 299.612C386.871 295.962 367.577 285.11 353.446 268.887C339.316 252.663 331.215 232.062 330.51 210.559C329.805 189.056 336.539 167.968 349.576 150.854C362.614 133.74 381.156 121.647 402.074 116.617C422.992 111.586 445.005 113.925 464.398 123.24C483.792 132.555 499.378 148.275 508.528 167.747H433.848V241.619H510.95Z" fill="#ECEBEB"/>
<path d="M510.143 172.126H504.087C493.448 155.585 477.849 142.833 459.522 135.695C441.195 128.557 421.081 127.399 402.056 132.387C383.031 137.375 366.072 148.253 353.605 163.465C341.138 178.676 333.802 197.442 332.647 217.075C332.647 215.259 332.486 213.442 332.486 211.606C332.519 190.42 339.767 169.877 353.036 153.361C366.306 136.845 384.804 125.341 405.486 120.745C426.167 116.148 447.797 118.732 466.813 128.072C485.829 137.411 501.097 152.949 510.102 172.126H510.143Z" fill="white"/>
<path d="M510.95 244.041C502.945 264.218 488.158 280.975 469.133 291.428C450.109 301.881 428.036 305.378 406.712 301.315C385.388 297.253 366.146 285.887 352.297 269.171C338.448 252.455 330.858 231.436 330.831 209.729C330.828 206.357 331.017 202.987 331.396 199.637C332.618 211.265 336.043 222.553 341.488 232.9C348.914 246.932 359.789 258.845 373.089 267.514C386.39 276.184 401.678 281.327 417.514 282.457C433.35 283.588 449.214 280.669 463.611 273.977C478.008 267.284 490.465 257.038 499.809 244.202L510.95 244.041Z" fill="#C4C4C4"/>
<path d="M416.268 174.206H371.198V188.516H416.268V174.206Z" fill="white"/>
<path d="M416.268 199.273H371.198V213.584H416.268V199.273Z" fill="white"/>
<path d="M416.268 224.342H371.198V238.652H416.268V224.342Z" fill="white"/>
<path d="M55.8079 265.032C49.8285 265.078 43.8611 264.489 38.0059 263.276C16.4901 258.674 0.726612 238.591 0 215.198V213.543C0.726612 190.151 16.4901 170.068 38.0059 165.506C54.7785 161.914 71.6521 164.517 87.9605 167.02C93.0871 167.807 98.3752 168.635 103.502 169.22L261.823 187.385C272.157 188.576 282.794 189.606 293.087 190.595C305.641 191.806 318.62 193.057 331.436 194.631L330.447 202.705C317.832 201.13 304.895 199.899 292.401 198.668C282.067 197.679 271.39 196.65 260.975 195.459L102.654 177.294C97.3862 176.688 92.0174 175.86 86.81 175.073C71.2282 172.671 55.1014 170.169 39.782 173.459C21.6167 177.233 8.43678 194.409 8.07347 214.371C8.43678 234.333 21.6167 251.509 39.7013 255.384C55.0207 258.674 71.1475 256.171 86.7494 253.769C91.9367 252.962 97.3055 252.135 102.573 251.529C155.347 245.487 208.121 239.432 260.894 233.364C271.309 232.173 281.966 231.144 292.28 230.155C304.794 228.944 317.731 227.712 330.346 226.118L331.335 234.191C318.599 235.766 305.621 237.017 292.986 238.228C282.713 239.217 272.096 240.246 261.762 241.437L103.441 259.603C98.3349 260.188 93.0266 260.995 87.9201 261.782C77.3147 263.684 66.5792 264.77 55.8079 265.032Z" fill="#3E3127"/>
<path d="M424.059 307.841C406.629 307.841 389.519 303.157 374.519 294.279C359.52 285.401 347.181 272.655 338.795 257.375C330.408 242.095 326.282 224.842 326.847 207.421C327.413 190 332.649 173.051 342.009 158.347C351.368 143.643 364.507 131.724 380.051 123.837C395.595 115.951 412.973 112.386 430.366 113.516C447.76 114.646 464.53 120.429 478.923 130.26C493.316 140.092 504.802 153.61 512.181 169.402L514.886 175.134H437.804V240.932H516.864L514.684 246.443C507.584 264.658 495.115 280.284 478.93 291.25C462.745 302.215 443.608 308.002 424.059 307.841ZM424.059 121.405C408.116 121.447 392.476 125.762 378.767 133.9C365.058 142.039 353.781 153.703 346.109 167.678C338.438 181.654 334.653 197.431 335.148 213.366C335.643 229.301 340.4 244.812 348.924 258.285C357.449 271.757 369.428 282.699 383.616 289.97C397.804 297.242 413.682 300.578 429.597 299.63C445.511 298.683 460.881 293.487 474.106 284.584C487.331 275.68 497.928 263.395 504.794 249.006H429.731V167.06H501.928C494.149 153.241 482.842 141.733 469.162 133.712C455.481 125.691 439.917 121.444 424.059 121.405Z" fill="#3E3127"/>
<path d="M418.287 193.097H369.18V174.73H418.287V193.097ZM373.217 189.06H414.25V178.767H373.217V189.06Z" fill="#3E3127"/>
<path d="M418.287 218.145H369.18V199.818H418.287V218.145ZM373.217 214.109H414.25V203.855H373.217V214.109Z" fill="#3E3127"/>
<path d="M418.287 243.213H369.18V224.866H418.287V243.213ZM373.217 239.177H414.25V228.903H373.217V239.177Z" fill="#3E3127"/>
<path d="M95.6295 249.188C99.0851 249.188 101.886 246.386 101.886 242.931C101.886 239.475 99.0851 236.674 95.6295 236.674C92.1739 236.674 89.3726 239.475 89.3726 242.931C89.3726 246.386 92.1739 249.188 95.6295 249.188Z" fill="#C4C4C4"/>
<path d="M407.831 291.029C412.658 291.029 416.57 287.116 416.57 282.289C416.57 277.462 412.658 273.549 407.831 273.549C403.004 273.549 399.091 277.462 399.091 282.289C399.091 287.116 403.004 291.029 407.831 291.029Z" fill="#C4C4C4"/>
<path d="M545.201 333.374C550.028 333.374 553.941 329.461 553.941 324.634C553.941 319.808 550.028 315.895 545.201 315.895C540.374 315.895 536.462 319.808 536.462 324.634C536.462 329.461 540.374 333.374 545.201 333.374Z" fill="#78ABBA"/>
<path d="M212.575 93.5311C212.575 95.849 211.654 98.0719 210.015 99.7109C208.376 101.35 206.153 102.271 203.835 102.271C201.517 102.271 199.294 101.35 197.655 99.7109C196.016 98.0719 195.096 95.849 195.096 93.5311C195.096 88.8081 199.011 88.8081 203.855 88.8081C208.699 88.8081 212.575 88.8081 212.575 93.5311Z" fill="white"/>
<path d="M215.643 109.032C218.05 109.032 220.002 107.08 220.002 104.672C220.002 102.265 218.05 100.313 215.643 100.313C213.235 100.313 211.283 102.265 211.283 104.672C211.283 107.08 213.235 109.032 215.643 109.032Z" fill="#D2EEF9"/>
<path d="M194.833 106.691C196.037 106.691 197.013 105.715 197.013 104.511C197.013 103.307 196.037 102.331 194.833 102.331C193.63 102.331 192.654 103.307 192.654 104.511C192.654 105.715 193.63 106.691 194.833 106.691Z" fill="#D2EEF9"/>
<path d="M103.119 237.38C104.456 237.38 105.541 236.296 105.541 234.958C105.541 233.621 104.456 232.536 103.119 232.536C101.781 232.536 100.697 233.621 100.697 234.958C100.697 236.296 101.781 237.38 103.119 237.38Z" fill="#C4C4C4"/>
<path d="M418.872 273.953C420.209 273.953 421.294 272.869 421.294 271.531C421.294 270.194 420.209 269.109 418.872 269.109C417.534 269.109 416.45 270.194 416.45 271.531C416.45 272.869 417.534 273.953 418.872 273.953Z" fill="#C4C4C4"/>
<path d="M551.539 311.878C552.877 311.878 553.961 310.794 553.961 309.456C553.961 308.119 552.877 307.034 551.539 307.034C550.201 307.034 549.117 308.119 549.117 309.456C549.117 310.794 550.201 311.878 551.539 311.878Z" fill="#78ABBA"/>
<path d="M397.699 273.852C399.884 273.852 401.655 272.081 401.655 269.896C401.655 267.711 399.884 265.94 397.699 265.94C395.515 265.94 393.743 267.711 393.743 269.896C393.743 272.081 395.515 273.852 397.699 273.852Z" fill="#C4C4C4"/>
<path d="M527.056 317.368C530.422 317.368 533.151 314.639 533.151 311.273C533.151 307.906 530.422 305.177 527.056 305.177C523.69 305.177 520.96 307.906 520.96 311.273C520.96 314.639 523.69 317.368 527.056 317.368Z" fill="#78ABBA"/>
<path d="M127.157 195.62H126.955L105.298 193.077C105.033 193.047 104.777 192.964 104.543 192.835C104.31 192.705 104.105 192.531 103.939 192.322C103.773 192.113 103.65 191.873 103.577 191.617C103.503 191.36 103.481 191.092 103.512 190.827C103.542 190.562 103.625 190.305 103.754 190.072C103.884 189.839 104.058 189.633 104.267 189.467C104.476 189.302 104.716 189.178 104.972 189.105C105.229 189.032 105.497 189.01 105.762 189.04L127.419 191.563C127.684 191.578 127.944 191.645 128.183 191.759C128.423 191.874 128.637 192.035 128.814 192.233C128.991 192.431 129.128 192.661 129.216 192.912C129.304 193.162 129.341 193.428 129.327 193.693C129.312 193.958 129.246 194.217 129.131 194.457C129.016 194.696 128.855 194.91 128.657 195.087C128.459 195.265 128.229 195.401 127.978 195.489C127.728 195.577 127.462 195.615 127.197 195.6L127.157 195.62Z" fill="#3E3127"/>
<path d="M131.195 202.463H130.993L118.055 200.949C117.79 200.918 117.534 200.836 117.3 200.706C117.067 200.577 116.862 200.403 116.696 200.194C116.53 199.985 116.407 199.745 116.334 199.488C116.26 199.232 116.238 198.963 116.269 198.698C116.299 198.433 116.382 198.177 116.511 197.944C116.641 197.71 116.815 197.505 117.024 197.339C117.233 197.173 117.473 197.05 117.729 196.977C117.986 196.904 118.254 196.882 118.519 196.912L131.457 198.426C131.992 198.455 132.494 198.696 132.852 199.096C133.21 199.495 133.394 200.02 133.364 200.555C133.335 201.091 133.094 201.592 132.695 201.95C132.295 202.308 131.77 202.492 131.235 202.463H131.195Z" fill="#3E3127"/>
<path d="M595.661 355.636C595.53 355.639 595.399 355.616 595.277 355.567C595.154 355.519 595.043 355.446 594.949 355.354C594.855 355.262 594.78 355.152 594.729 355.031C594.678 354.909 594.652 354.779 594.652 354.648C594.649 354.513 594.674 354.38 594.723 354.255C594.773 354.13 594.846 354.017 594.94 353.921C595.034 353.825 595.147 353.749 595.27 353.697C595.394 353.645 595.527 353.618 595.661 353.618H617.46C617.591 353.615 617.722 353.639 617.844 353.688C617.967 353.736 618.078 353.808 618.172 353.901C618.266 353.993 618.341 354.103 618.392 354.224C618.443 354.345 618.469 354.476 618.469 354.607C618.469 354.873 618.366 355.129 618.182 355.321C617.997 355.513 617.746 355.626 617.48 355.636H595.661Z" fill="#3E3127"/>
<path d="M609.264 359.915C609.133 359.918 609.002 359.895 608.879 359.846C608.757 359.798 608.646 359.725 608.552 359.633C608.458 359.541 608.383 359.431 608.332 359.31C608.281 359.188 608.255 359.058 608.255 358.926C608.255 358.657 608.361 358.398 608.549 358.206C608.738 358.013 608.995 357.902 609.264 357.897H622.283C622.55 357.897 622.807 358.003 622.996 358.193C623.185 358.382 623.292 358.639 623.292 358.906C623.294 359.038 623.271 359.169 623.222 359.291C623.174 359.413 623.101 359.525 623.009 359.619C622.917 359.713 622.807 359.787 622.686 359.838C622.565 359.889 622.434 359.915 622.303 359.915H609.264Z" fill="#3E3127"/>
<path d="M124.756 355.637C124.624 355.639 124.493 355.616 124.371 355.567C124.249 355.519 124.137 355.446 124.043 355.354C123.949 355.262 123.875 355.152 123.824 355.031C123.773 354.909 123.747 354.779 123.747 354.648C123.744 354.513 123.768 354.38 123.817 354.255C123.867 354.13 123.941 354.017 124.035 353.921C124.129 353.825 124.241 353.749 124.365 353.697C124.489 353.645 124.621 353.618 124.756 353.618H146.554C146.817 353.623 147.068 353.728 147.255 353.912C147.443 354.096 147.553 354.345 147.563 354.607C147.558 354.875 147.451 355.131 147.263 355.323C147.076 355.514 146.822 355.626 146.554 355.637H124.736H124.756Z" fill="#3E3127"/>
<path d="M138.359 359.915C138.094 359.916 137.841 359.812 137.652 359.627C137.463 359.442 137.355 359.191 137.349 358.926C137.349 358.657 137.455 358.398 137.644 358.206C137.832 358.013 138.089 357.902 138.359 357.897H151.377C151.645 357.897 151.901 358.003 152.091 358.193C152.28 358.382 152.386 358.639 152.386 358.906C152.386 359.174 152.28 359.431 152.091 359.62C151.901 359.809 151.645 359.915 151.377 359.915H138.338H138.359Z" fill="#3E3127"/>
<path d="M515.855 133.213C515.345 133.211 514.854 133.016 514.482 132.668C514.093 132.303 513.863 131.799 513.844 131.265C513.825 130.732 514.018 130.213 514.381 129.822L537.128 105.218C537.301 105.003 537.517 104.826 537.761 104.697C538.006 104.569 538.274 104.492 538.549 104.472C538.824 104.451 539.101 104.487 539.361 104.578C539.622 104.668 539.862 104.811 540.065 104.998C540.268 105.185 540.431 105.411 540.543 105.663C540.656 105.915 540.715 106.188 540.718 106.464C540.721 106.74 540.667 107.013 540.56 107.268C540.453 107.522 540.295 107.752 540.095 107.943L517.348 132.567C517.158 132.772 516.927 132.936 516.669 133.047C516.412 133.158 516.135 133.214 515.855 133.213Z" fill="#3E3127"/>
<path d="M538.904 122.374C538.511 122.377 538.124 122.264 537.794 122.05C537.463 121.836 537.202 121.53 537.044 121.169C536.885 120.809 536.835 120.41 536.9 120.021C536.965 119.633 537.143 119.272 537.411 118.983L551.015 104.269C551.192 104.07 551.407 103.908 551.647 103.793C551.887 103.677 552.148 103.61 552.414 103.595C552.68 103.58 552.947 103.617 553.198 103.705C553.45 103.793 553.682 103.93 553.881 104.108C554.08 104.285 554.241 104.5 554.357 104.74C554.473 104.98 554.54 105.241 554.555 105.507C554.57 105.773 554.532 106.04 554.444 106.291C554.356 106.543 554.22 106.775 554.042 106.974L540.438 121.688C540.247 121.905 540.011 122.08 539.746 122.198C539.481 122.316 539.194 122.376 538.904 122.374Z" fill="#3E3127"/>
<path d="M621.818 320.739C619.108 320.739 616.458 319.935 614.205 318.429C611.951 316.923 610.194 314.783 609.157 312.279C608.12 309.775 607.848 307.019 608.377 304.361C608.906 301.702 610.211 299.26 612.128 297.344C614.044 295.427 616.486 294.122 619.145 293.593C621.803 293.064 624.559 293.336 627.063 294.373C629.567 295.41 631.708 297.167 633.214 299.42C634.719 301.674 635.523 304.324 635.523 307.034C635.518 310.667 634.072 314.15 631.503 316.719C628.934 319.288 625.452 320.734 621.818 320.739ZM621.818 297.366C619.906 297.366 618.037 297.933 616.447 298.996C614.857 300.058 613.618 301.568 612.886 303.335C612.155 305.101 611.963 307.045 612.336 308.92C612.709 310.796 613.63 312.519 614.982 313.871C616.334 315.223 618.057 316.143 619.932 316.517C621.808 316.89 623.752 316.698 625.518 315.966C627.285 315.235 628.795 313.995 629.857 312.406C630.919 310.816 631.486 308.946 631.486 307.034C631.481 304.472 630.461 302.016 628.649 300.204C626.837 298.392 624.381 297.372 621.818 297.366Z" fill="#3E3127"/>
<path d="M421.052 357.756H330.427C324.814 357.757 319.304 356.24 314.483 353.366C309.661 350.491 305.707 346.366 303.038 341.427C302.912 341.194 302.833 340.938 302.806 340.674C302.779 340.411 302.805 340.144 302.88 339.89C302.956 339.636 303.082 339.4 303.249 339.194C303.416 338.989 303.622 338.818 303.856 338.692C304.089 338.566 304.345 338.488 304.608 338.461C304.872 338.434 305.138 338.459 305.392 338.535C305.646 338.611 305.883 338.736 306.088 338.903C306.294 339.07 306.465 339.276 306.59 339.51C308.924 343.793 312.37 347.366 316.566 349.853C320.761 352.34 325.55 353.647 330.427 353.638H421.052C425.929 353.647 430.718 352.34 434.914 349.853C439.11 347.366 442.556 343.793 444.889 339.51C445.015 339.276 445.186 339.07 445.391 338.903C445.597 338.736 445.833 338.611 446.087 338.535C446.341 338.459 446.608 338.434 446.871 338.461C447.135 338.488 447.391 338.566 447.624 338.692C447.857 338.818 448.063 338.989 448.231 339.194C448.398 339.4 448.523 339.636 448.599 339.89C448.675 340.144 448.7 340.411 448.673 340.674C448.646 340.938 448.567 341.194 448.441 341.427C445.773 346.366 441.818 350.491 436.997 353.366C432.175 356.24 426.666 357.757 421.052 357.756Z" fill="#3E3127"/>
<path d="M446.665 139.449C446.524 139.469 446.382 139.469 446.241 139.449C434.05 136.75 421.424 136.681 409.204 139.247C408.682 139.361 408.136 139.264 407.686 138.976C407.236 138.689 406.918 138.235 406.802 137.713C406.746 137.453 406.741 137.185 406.789 136.924C406.837 136.662 406.936 136.413 407.08 136.189C407.225 135.966 407.412 135.774 407.631 135.623C407.85 135.472 408.096 135.366 408.356 135.311C421.133 132.604 434.341 132.673 447.089 135.513C447.61 135.625 448.065 135.938 448.357 136.384C448.648 136.83 448.751 137.373 448.643 137.895C448.538 138.34 448.285 138.735 447.926 139.018C447.566 139.3 447.122 139.452 446.665 139.449Z" fill="white"/>
<path d="M382.784 150.207C382.475 150.206 382.171 150.135 381.895 149.999C381.619 149.862 381.377 149.664 381.189 149.42C380.861 148.999 380.713 148.466 380.778 147.936C380.842 147.407 381.113 146.924 381.532 146.594C385.88 143.514 390.608 141.01 395.6 139.147C396.098 138.948 396.654 138.956 397.146 139.168C397.638 139.38 398.026 139.779 398.224 140.277C398.422 140.775 398.414 141.331 398.202 141.823C397.99 142.315 397.592 142.703 397.094 142.901C392.471 144.628 388.089 146.941 384.055 149.783C383.692 150.065 383.243 150.215 382.784 150.207Z" fill="white"/>
<path d="M197.276 135.897C196.473 135.897 195.703 135.578 195.135 135.01C194.567 134.442 194.248 133.672 194.248 132.869V120.073C194.248 119.27 194.567 118.5 195.135 117.932C195.703 117.364 196.473 117.045 197.276 117.045C198.079 117.045 198.849 117.364 199.416 117.932C199.984 118.5 200.303 119.27 200.303 120.073V132.869C200.303 133.672 199.984 134.442 199.416 135.01C198.849 135.578 198.079 135.897 197.276 135.897Z" fill="white"/>
<path d="M197.276 171.178C196.473 171.178 195.703 170.859 195.135 170.291C194.567 169.724 194.248 168.953 194.248 168.151V148.108C194.248 147.305 194.567 146.535 195.135 145.967C195.703 145.4 196.473 145.081 197.276 145.081C198.079 145.081 198.849 145.4 199.416 145.967C199.984 146.535 200.303 147.305 200.303 148.108V168.151C200.303 168.953 199.984 169.724 199.416 170.291C198.849 170.859 198.079 171.178 197.276 171.178Z" fill="white"/>
<path d="M187.91 191.059V191.987C187.9 193.414 188.414 194.795 189.356 195.867C190.297 196.939 191.6 197.627 193.017 197.8L240.63 203.734C241.45 203.834 242.281 203.759 243.07 203.513C243.858 203.268 244.586 202.858 245.204 202.31C245.822 201.763 246.317 201.09 246.656 200.337C246.995 199.584 247.17 198.767 247.169 197.941V195.56" fill="white"/>
</svg>
