<svg width="32" height="33" viewBox="0 0 32 33" fill="none" xmlns="http://www.w3.org/2000/svg">
<g clip-path="url(#clip0)">
<path d="M7.16286 28.8573H0.528571V10.1635H7.16286V28.8573ZM3.84214 7.61353C1.72071 7.61353 0 6.07604 0 4.21978C1.51843e-08 3.32816 0.404796 2.47305 1.12534 1.84258C1.84588 1.21211 2.82314 0.85791 3.84214 0.85791C4.86114 0.85791 5.83841 1.21211 6.55895 1.84258C7.27949 2.47305 7.68429 3.32816 7.68429 4.21978C7.68429 6.07604 5.96286 7.61353 3.84214 7.61353ZM31.9929 28.8573H25.3729V19.7573C25.3729 17.5885 25.3229 14.8073 21.9236 14.8073C18.4743 14.8073 17.9457 17.1635 17.9457 19.601V28.8573H11.3186V10.1635H17.6814V12.7135H17.7743C18.66 11.2448 20.8236 9.69479 24.0514 9.69479C30.7657 9.69479 32 13.5635 32 18.5885V28.8573H31.9929Z" fill="#FAFAF6"/>
</g>
<defs>
<clipPath id="clip0">
<rect width="32" height="32" fill="white" transform="translate(0 0.857178)"/>
</clipPath>
</defs>
</svg>
