<svg width="32" height="33" viewBox="0 0 32 33" fill="none" xmlns="http://www.w3.org/2000/svg">
<path d="M31.3407 9.17552C30.9718 7.80468 29.891 6.72412 28.5204 6.35498C26.0162 5.66968 15.9997 5.66968 15.9997 5.66968C15.9997 5.66968 5.98337 5.66968 3.47923 6.32885C2.135 6.69775 1.02783 7.80492 0.658933 9.17552C0 11.6794 0 16.8723 0 16.8723C0 16.8723 0 22.0912 0.658933 24.569C1.02807 25.9396 2.10863 27.0204 3.47948 27.3896C6.00974 28.0749 15.9999 28.0749 15.9999 28.0749C15.9999 28.0749 26.0162 28.0749 28.5204 27.4157C29.8912 27.0468 30.9718 25.966 31.3409 24.5954C31.9999 22.0912 31.9999 16.8986 31.9999 16.8986C31.9999 16.8986 32.0262 11.6794 31.3407 9.17552Z" fill="#FAFAF6"/>
<path d="M12.8105 21.6697L21.1399 16.8723L12.8105 12.075V21.6697Z" fill="#105A31"/>
</svg>
